<svg xmlns="http://www.w3.org/2000/svg" viewBox="0 0 750 500"><g id="freepik--background-complete--inject-190"><g><rect x="209.96" y="254.18" width="18.21" height="63.83" style="fill:#e0e0e0;"></rect><path d="M277.92,259.6s-.77-.52,.93-2.75c1.7-2.23-.93-3.44-.93-3.44-7.44,4.29-17.82,0-17.82,0,0,0,12.24-3.78,13.79-7.39,1.16-2.69-.88-2.99-1.99-2.97,1.25-.13,3.96-.57,4.78-2.01,1.09-1.89-3.18-4.12-3.18-4.12,0,0,.7-1.03,0-2.92-.7-1.89-16.66-4.64-16.66-4.64,4.65,.52,6.35-4.12,6.35-4.12,0,0,7.9,.17,9.76-2.92,1.86-3.09-1.24-3.95-6.51-6.53-5.27-2.58-16.89-12.2-16.89-12.2,0,0,7.28-.69,9.3-2.41,2.01-1.72,.16-2.06,.16-2.06,8.68,.86,5.73-3.78,5.73-3.78-11.62-3.61-17.82-11.51-17.82-11.51,0,0,5.42-1.2,8.21-3.78,2.79-2.58-2.33-3.26-2.33-3.26,0,0,10.23-1.37,4.34-5.15-4.48-2.87-11.64-6.74-13.86-7.9,2.44,.9,7.98-.18,7.98-.18,6.51-2.92,0-7.22,0-7.22-7.59-4.29-18.75-15.12-18.75-15.12,0,0,5.58,2.92,8.37,2.06,2.79-.86-3.1-4.29-3.1-4.29,0,0,2.94,.86,4.18,0,1.24-.86-3.26-4.81-3.26-4.81-6.68-4.34-14.92-15.74-18.36-20.63-3.45,4.89-11.68,16.29-18.36,20.63,0,0-4.49,3.95-3.25,4.81,1.24,.86,4.18,0,4.18,0,0,0-5.89,3.44-3.1,4.29,2.79,.86,8.37-2.06,8.37-2.06,0,0-11.16,10.82-18.75,15.12,0,0-6.51,4.29,0,7.22,0,0,5.53,1.07,7.97,.18-2.23,1.16-9.39,5.03-13.86,7.9-5.89,3.78,4.34,5.15,4.34,5.15,0,0-5.11,.69-2.32,3.26,2.79,2.58,8.21,3.78,8.21,3.78,0,0-6.2,7.9-17.82,11.51,0,0-2.94,4.64,5.73,3.78,0,0-1.86,.34,.15,2.06,2.01,1.72,9.3,2.41,9.3,2.41,0,0-11.62,9.62-16.89,12.2-5.27,2.58-8.37,3.44-6.51,6.53,1.86,3.09,9.76,2.92,9.76,2.92,0,0,1.7,4.64,6.35,4.12,0,0-15.96,2.75-16.66,4.64-.7,1.89,0,2.92,0,2.92,0,0-4.26,2.23-3.18,4.12,.82,1.44,3.53,1.88,4.78,2.01-1.11-.02-3.15,.28-1.99,2.97,1.55,3.61,13.79,7.39,13.79,7.39,0,0-10.38,4.29-17.82,0,0,0-2.63,1.2-.93,3.44,1.71,2.23,.93,2.75,.93,2.75,0,0-3.87-2.92-2.17,1.55,1.7,4.47,10.69,7.22,10.69,7.22,0,0-5.11,.86-3.57,3.61,1.55,2.75,8.06,6.01,15.19,6.7,7.13,.69,16.74-1.89,16.74-1.89,0,0-6.51,3.44-2.02,5.32,4.49,1.89,9.61-2.4,9.61-2.4,0,0-.93,4.4,2.79,2.89,3.72-1.51,6.82-4.43,6.82-4.43,0,0,1.16,6.48,3.48,4.93,2.32,1.55,3.48-4.93,3.48-4.93,0,0,3.1,2.92,6.82,4.43,3.72,1.51,2.79-2.89,2.79-2.89,0,0,5.11,4.29,9.61,2.4,4.49-1.89-2.01-5.32-2.01-5.32,0,0,9.61,2.58,16.74,1.89,7.13-.69,13.64-3.95,15.19-6.7,1.55-2.75-3.57-3.61-3.57-3.61,0,0,8.99-2.75,10.69-7.22,1.7-4.47-2.17-1.55-2.17-1.55Z" style="fill:#e0e0e0;"></path></g><g><polyline points="116.01 242.35 94.36 242.35 94.36 318.26 116.01 318.26" style="fill:#ebebeb;"></polyline><path d="M175.18,248.8s-.92-.61,1.11-3.27c2.03-2.66-1.11-4.09-1.11-4.09-8.85,5.11-21.2,0-21.2,0,0,0,14.56-4.49,16.4-8.78,1.38-3.2-1.05-3.56-2.37-3.53,1.49-.15,4.7-.68,5.69-2.39,1.29-2.25-3.78-4.9-3.78-4.9,0,0,.83-1.23,0-3.47-.83-2.25-19.82-5.52-19.82-5.52,5.53,.61,7.56-4.9,7.56-4.9,0,0,9.4,.2,11.61-3.47,2.21-3.68-1.47-4.7-7.74-7.76-6.27-3.06-20.09-14.51-20.09-14.51,0,0,8.66-.82,11.06-2.86,2.4-2.04,.18-2.45,.18-2.45,10.32,1.02,6.82-4.49,6.82-4.49-13.82-4.29-21.2-13.69-21.2-13.69,0,0,6.45-1.43,9.77-4.49,3.32-3.06-2.77-3.88-2.77-3.88,0,0,12.17-1.63,5.16-6.13-5.32-3.42-13.84-8.01-16.49-9.39,2.9,1.07,9.48-.21,9.48-.21,7.74-3.47,0-8.58,0-8.58-9.03-5.11-22.3-17.98-22.3-17.98,0,0,6.64,3.47,9.95,2.45,3.32-1.02-3.69-5.11-3.69-5.11,0,0,3.5,1.02,4.98,0,1.47-1.02-3.87-5.72-3.87-5.72-7.95-5.16-17.74-18.71-21.84-24.53-4.1,5.82-13.89,19.37-21.84,24.53,0,0-5.34,4.7-3.87,5.72,1.47,1.02,4.98,0,4.98,0,0,0-7,4.09-3.69,5.11,3.32,1.02,9.95-2.45,9.95-2.45,0,0-13.27,12.87-22.3,17.98,0,0-7.74,5.11,0,8.58,0,0,6.58,1.28,9.48,.21-2.65,1.38-11.16,5.98-16.49,9.39-7,4.49,5.16,6.13,5.16,6.13,0,0-6.08,.82-2.76,3.88,3.32,3.06,9.77,4.49,9.77,4.49,0,0-7.37,9.4-21.2,13.69,0,0-3.5,5.52,6.82,4.49,0,0-2.21,.41,.18,2.45,2.4,2.04,11.06,2.86,11.06,2.86,0,0-13.82,11.44-20.09,14.51-6.27,3.06-9.95,4.09-7.74,7.76,2.21,3.68,11.61,3.47,11.61,3.47,0,0,2.03,5.52,7.56,4.9,0,0-18.99,3.27-19.82,5.52-.83,2.25,0,3.47,0,3.47,0,0-5.07,2.66-3.78,4.9,.98,1.71,4.2,2.24,5.69,2.39-1.32-.03-3.74,.33-2.37,3.53,1.84,4.29,16.41,8.78,16.41,8.78,0,0-12.35,5.11-21.2,0,0,0-3.13,1.43-1.11,4.09,2.03,2.66,1.11,3.27,1.11,3.27,0,0-4.61-3.47-2.58,1.84,2.03,5.31,12.72,8.58,12.72,8.58,0,0-6.08,1.02-4.24,4.29,1.84,3.27,9.59,7.15,18.06,7.97,8.48,.82,19.91-2.25,19.91-2.25,0,0-7.74,4.09-2.4,6.33,5.35,2.25,11.43-2.86,11.43-2.86,0,0-1.11,5.23,3.32,3.43,4.42-1.8,8.11-5.27,8.11-5.27,0,0,1.38,7.71,4.14,5.86,2.76,1.84,4.14-5.86,4.14-5.86,0,0,3.69,3.47,8.11,5.27,4.42,1.8,3.32-3.43,3.32-3.43,0,0,6.08,5.11,11.43,2.86,5.35-2.25-2.4-6.33-2.4-6.33,0,0,11.43,3.06,19.91,2.25,8.48-.82,16.22-4.7,18.06-7.97,1.84-3.27-4.24-4.29-4.24-4.29,0,0,10.69-3.27,12.72-8.58,2.03-5.31-2.58-1.84-2.58-1.84Z" style="fill:#ebebeb;"></path></g><g><polyline points="397.82 242.35 376.16 242.35 376.16 318.26 397.82 318.26" style="fill:#ebebeb;"></polyline><path d="M456.99,248.8s-.92-.61,1.11-3.27c2.03-2.66-1.11-4.09-1.11-4.09-8.85,5.11-21.2,0-21.2,0,0,0,14.56-4.49,16.4-8.78,1.38-3.2-1.05-3.56-2.37-3.53,1.49-.15,4.7-.68,5.69-2.39,1.29-2.25-3.78-4.9-3.78-4.9,0,0,.83-1.23,0-3.47-.83-2.25-19.82-5.52-19.82-5.52,5.53,.61,7.56-4.9,7.56-4.9,0,0,9.4,.2,11.61-3.47,2.21-3.68-1.47-4.7-7.74-7.76-6.27-3.06-20.09-14.51-20.09-14.51,0,0,8.66-.82,11.06-2.86,2.4-2.04,.18-2.45,.18-2.45,10.32,1.02,6.82-4.49,6.82-4.49-13.82-4.29-21.2-13.69-21.2-13.69,0,0,6.45-1.43,9.77-4.49,3.32-3.06-2.77-3.88-2.77-3.88,0,0,12.17-1.63,5.16-6.13-5.32-3.42-13.84-8.01-16.49-9.39,2.9,1.07,9.48-.21,9.48-.21,7.74-3.47,0-8.58,0-8.58-9.03-5.11-22.3-17.98-22.3-17.98,0,0,6.64,3.47,9.95,2.45,3.32-1.02-3.69-5.11-3.69-5.11,0,0,3.5,1.02,4.98,0,1.47-1.02-3.87-5.72-3.87-5.72-7.95-5.16-17.74-18.71-21.84-24.53-4.1,5.82-13.89,19.37-21.84,24.53,0,0-5.34,4.7-3.87,5.72,1.47,1.02,4.98,0,4.98,0,0,0-7,4.09-3.69,5.11,3.32,1.02,9.95-2.45,9.95-2.45,0,0-13.27,12.87-22.3,17.98,0,0-7.74,5.11,0,8.58,0,0,6.58,1.28,9.48,.21-2.65,1.38-11.16,5.98-16.49,9.39-7,4.49,5.16,6.13,5.16,6.13,0,0-6.08,.82-2.76,3.88,3.32,3.06,9.77,4.49,9.77,4.49,0,0-7.37,9.4-21.2,13.69,0,0-3.5,5.52,6.82,4.49,0,0-2.21,.41,.18,2.45,2.4,2.04,11.06,2.86,11.06,2.86,0,0-13.82,11.44-20.09,14.51-6.27,3.06-9.95,4.09-7.74,7.76,2.21,3.68,11.61,3.47,11.61,3.47,0,0,2.03,5.52,7.56,4.9,0,0-18.99,3.27-19.82,5.52-.83,2.25,0,3.47,0,3.47,0,0-5.07,2.66-3.78,4.9,.98,1.71,4.2,2.24,5.69,2.39-1.32-.03-3.74,.33-2.37,3.53,1.84,4.29,16.4,8.78,16.4,8.78,0,0-12.35,5.11-21.2,0,0,0-3.13,1.43-1.11,4.09,2.03,2.66,1.11,3.27,1.11,3.27,0,0-4.61-3.47-2.58,1.84,2.03,5.31,12.72,8.58,12.72,8.58,0,0-6.08,1.02-4.24,4.29,1.84,3.27,9.59,7.15,18.06,7.97,8.48,.82,19.91-2.25,19.91-2.25,0,0-7.74,4.09-2.4,6.33,5.35,2.25,11.43-2.86,11.43-2.86,0,0-1.11,5.23,3.32,3.43,4.42-1.8,8.11-5.27,8.11-5.27,0,0,1.38,7.71,4.14,5.86,2.76,1.84,4.14-5.86,4.14-5.86,0,0,3.69,3.47,8.11,5.27,4.42,1.8,3.32-3.43,3.32-3.43,0,0,6.08,5.11,11.43,2.86,5.35-2.25-2.4-6.33-2.4-6.33,0,0,11.43,3.06,19.91,2.25,8.48-.82,16.22-4.7,18.06-7.97,1.84-3.27-4.24-4.29-4.24-4.29,0,0,10.69-3.27,12.72-8.58,2.03-5.31-2.58-1.84-2.58-1.84Z" style="fill:#ebebeb;"></path></g><g><rect x="498.05" y="266.34" width="14.43" height="50.59" style="fill:#ebebeb;"></rect><path d="M551.91,270.64s-.61-.41,.74-2.18c1.35-1.77-.74-2.72-.74-2.72-5.9,3.4-14.13,0-14.13,0,0,0,9.7-3,10.93-5.85,.92-2.14-.7-2.37-1.58-2.35,.99-.1,3.14-.45,3.79-1.59,.86-1.5-2.52-3.27-2.52-3.27,0,0,.55-.82,0-2.31-.55-1.5-13.21-3.68-13.21-3.68,3.69,.41,5.04-3.27,5.04-3.27,0,0,6.26,.14,7.74-2.31,1.47-2.45-.98-3.13-5.16-5.17-4.18-2.04-13.39-9.67-13.39-9.67,0,0,5.77-.54,7.37-1.91,1.6-1.36,.12-1.63,.12-1.63,6.88,.68,4.55-3,4.55-3-9.21-2.86-14.13-9.12-14.13-9.12,0,0,4.3-.95,6.51-3,2.21-2.04-1.84-2.59-1.84-2.59,0,0,8.11-1.09,3.44-4.08-3.55-2.28-9.22-5.34-10.99-6.26,1.93,.71,6.32-.14,6.32-.14,5.16-2.31,0-5.72,0-5.72-6.02-3.4-14.86-11.98-14.86-11.98,0,0,4.42,2.31,6.63,1.63,2.21-.68-2.46-3.4-2.46-3.4,0,0,2.33,.68,3.32,0,.98-.68-2.58-3.81-2.58-3.81-5.3-3.44-11.82-12.47-14.55-16.35-2.73,3.88-9.26,12.91-14.55,16.35,0,0-3.56,3.13-2.58,3.81,.98,.68,3.32,0,3.32,0,0,0-4.67,2.72-2.46,3.4,2.21,.68,6.63-1.63,6.63-1.63,0,0-8.84,8.58-14.86,11.98,0,0-5.16,3.4,0,5.72,0,0,4.39,.85,6.32,.14-1.76,.92-7.44,3.98-10.99,6.26-4.67,3,3.44,4.08,3.44,4.08,0,0-4.05,.54-1.84,2.59,2.21,2.04,6.51,3,6.51,3,0,0-4.91,6.26-14.13,9.12,0,0-2.33,3.68,4.55,3,0,0-1.47,.27,.12,1.63,1.6,1.36,7.37,1.91,7.37,1.91,0,0-9.21,7.62-13.39,9.67-4.18,2.04-6.63,2.72-5.16,5.17,1.47,2.45,7.74,2.31,7.74,2.31,0,0,1.35,3.68,5.04,3.27,0,0-12.65,2.18-13.21,3.68-.55,1.5,0,2.31,0,2.31,0,0-3.38,1.77-2.52,3.27,.65,1.14,2.8,1.49,3.79,1.59-.88-.02-2.5,.22-1.58,2.35,1.23,2.86,10.93,5.85,10.93,5.85,0,0-8.23,3.4-14.13,0,0,0-2.09,.95-.74,2.72,1.35,1.77,.74,2.18,.74,2.18,0,0-3.07-2.31-1.72,1.23,1.35,3.54,8.48,5.72,8.48,5.72,0,0-4.05,.68-2.83,2.86,1.23,2.18,6.39,4.77,12.04,5.31,5.65,.54,13.27-1.5,13.27-1.5,0,0-5.16,2.72-1.6,4.22,3.56,1.5,7.62-1.91,7.62-1.91,0,0-.74,3.48,2.21,2.29,2.95-1.2,5.4-3.51,5.4-3.51,0,0,.92,5.14,2.76,3.91,1.84,1.23,2.76-3.91,2.76-3.91,0,0,2.46,2.31,5.41,3.51,2.95,1.2,2.21-2.29,2.21-2.29,0,0,4.05,3.4,7.62,1.91,3.56-1.5-1.6-4.22-1.6-4.22,0,0,7.62,2.04,13.27,1.5,5.65-.54,10.81-3.13,12.04-5.31,1.23-2.18-2.83-2.86-2.83-2.86,0,0,7.12-2.18,8.48-5.72,1.35-3.54-1.72-1.23-1.72-1.23Z" style="fill:#e0e0e0;"></path></g><g><rect x="285.78" y="266.34" width="14.43" height="50.59" style="fill:#ebebeb;"></rect><path d="M339.64,270.64s-.61-.41,.74-2.18c1.35-1.77-.74-2.72-.74-2.72-5.9,3.4-14.13,0-14.13,0,0,0,9.7-3,10.93-5.85,.92-2.14-.7-2.37-1.58-2.35,.99-.1,3.14-.45,3.79-1.59,.86-1.5-2.52-3.27-2.52-3.27,0,0,.55-.82,0-2.31-.55-1.5-13.21-3.68-13.21-3.68,3.69,.41,5.04-3.27,5.04-3.27,0,0,6.26,.14,7.74-2.31,1.47-2.45-.98-3.13-5.16-5.17-4.18-2.04-13.39-9.67-13.39-9.67,0,0,5.77-.54,7.37-1.91,1.6-1.36,.12-1.63,.12-1.63,6.88,.68,4.54-3,4.54-3-9.21-2.86-14.13-9.12-14.13-9.12,0,0,4.3-.95,6.51-3,2.21-2.04-1.84-2.59-1.84-2.59,0,0,8.11-1.09,3.44-4.08-3.55-2.28-9.22-5.34-10.99-6.26,1.93,.71,6.32-.14,6.32-.14,5.16-2.31,0-5.72,0-5.72-6.02-3.4-14.86-11.98-14.86-11.98,0,0,4.42,2.31,6.63,1.63,2.21-.68-2.46-3.4-2.46-3.4,0,0,2.33,.68,3.32,0,.98-.68-2.58-3.81-2.58-3.81-5.3-3.44-11.82-12.47-14.55-16.35-2.73,3.88-9.26,12.91-14.55,16.35,0,0-3.56,3.13-2.58,3.81,.98,.68,3.32,0,3.32,0,0,0-4.67,2.72-2.46,3.4,2.21,.68,6.63-1.63,6.63-1.63,0,0-8.84,8.58-14.86,11.98,0,0-5.16,3.4,0,5.72,0,0,4.39,.85,6.32,.14-1.76,.92-7.44,3.98-10.99,6.26-4.67,3,3.44,4.08,3.44,4.08,0,0-4.05,.54-1.84,2.59,2.21,2.04,6.51,3,6.51,3,0,0-4.91,6.26-14.13,9.12,0,0-2.33,3.68,4.55,3,0,0-1.47,.27,.12,1.63,1.6,1.36,7.37,1.91,7.37,1.91,0,0-9.21,7.62-13.39,9.67-4.18,2.04-6.63,2.72-5.16,5.17,1.47,2.45,7.74,2.31,7.74,2.31,0,0,1.35,3.68,5.04,3.27,0,0-12.65,2.18-13.21,3.68-.55,1.5,0,2.31,0,2.31,0,0-3.38,1.77-2.52,3.27,.65,1.14,2.8,1.49,3.79,1.59-.88-.02-2.5,.22-1.58,2.35,1.23,2.86,10.93,5.85,10.93,5.85,0,0-8.23,3.4-14.13,0,0,0-2.09,.95-.74,2.72,1.35,1.77,.74,2.18,.74,2.18,0,0-3.07-2.31-1.72,1.23,1.35,3.54,8.48,5.72,8.48,5.72,0,0-4.05,.68-2.83,2.86,1.23,2.18,6.39,4.77,12.04,5.31,5.65,.54,13.27-1.5,13.27-1.5,0,0-5.16,2.72-1.6,4.22,3.56,1.5,7.62-1.91,7.62-1.91,0,0-.74,3.48,2.21,2.29,2.95-1.2,5.4-3.51,5.4-3.51,0,0,.92,5.14,2.76,3.91,1.84,1.23,2.76-3.91,2.76-3.91,0,0,2.46,2.31,5.4,3.51,2.95,1.2,2.21-2.29,2.21-2.29,0,0,4.05,3.4,7.62,1.91,3.56-1.5-1.6-4.22-1.6-4.22,0,0,7.62,2.04,13.27,1.5,5.65-.54,10.81-3.13,12.04-5.31,1.23-2.18-2.83-2.86-2.83-2.86,0,0,7.12-2.18,8.48-5.72,1.35-3.54-1.72-1.23-1.72-1.23Z" style="fill:#e0e0e0;"></path></g><g><rect x="625.19" y="253.15" width="18.2" height="63.79" style="fill:#ebebeb;"></rect><path d="M693.12,258.57s-.77-.51,.93-2.75c1.7-2.23-.93-3.43-.93-3.43-7.44,4.29-17.81,0-17.81,0,0,0,12.24-3.78,13.79-7.38,1.16-2.69-.88-2.99-1.99-2.97,1.25-.13,3.95-.57,4.78-2.01,1.08-1.89-3.17-4.12-3.17-4.12,0,0,.7-1.03,0-2.92-.7-1.89-16.65-4.64-16.65-4.64,4.65,.52,6.35-4.12,6.35-4.12,0,0,7.9,.17,9.76-2.92,1.86-3.09-1.24-3.95-6.51-6.52-5.27-2.58-16.88-12.19-16.88-12.19,0,0,7.28-.69,9.29-2.4,2.01-1.72,.15-2.06,.15-2.06,8.67,.86,5.73-3.78,5.73-3.78-11.62-3.61-17.81-11.5-17.81-11.5,0,0,5.42-1.2,8.21-3.78,2.79-2.58-2.32-3.26-2.32-3.26,0,0,10.22-1.37,4.34-5.15-4.47-2.87-11.63-6.73-13.86-7.89,2.44,.9,7.97-.18,7.97-.18,6.51-2.92,0-7.21,0-7.21-7.59-4.29-18.74-15.11-18.74-15.11,0,0,5.58,2.92,8.37,2.06,2.79-.86-3.1-4.29-3.1-4.29,0,0,2.94,.86,4.18,0,1.24-.86-3.25-4.81-3.25-4.81-6.68-4.34-14.91-15.73-18.35-20.62-3.44,4.89-11.68,16.28-18.35,20.62,0,0-4.49,3.95-3.25,4.81,1.24,.86,4.18,0,4.18,0,0,0-5.89,3.43-3.1,4.29,2.79,.86,8.36-2.06,8.36-2.06,0,0-11.15,10.82-18.74,15.11,0,0-6.51,4.29,0,7.21,0,0,5.53,1.07,7.97,.18-2.22,1.16-9.38,5.02-13.86,7.89-5.89,3.78,4.34,5.15,4.34,5.15,0,0-5.11,.69-2.32,3.26,2.79,2.58,8.21,3.78,8.21,3.78,0,0-6.2,7.9-17.81,11.5,0,0-2.94,4.64,5.73,3.78,0,0-1.86,.34,.15,2.06,2.01,1.72,9.29,2.4,9.29,2.4,0,0-11.62,9.61-16.88,12.19-5.27,2.58-8.36,3.43-6.51,6.52,1.86,3.09,9.76,2.92,9.76,2.92,0,0,1.7,4.64,6.35,4.12,0,0-15.96,2.75-16.65,4.64-.7,1.89,0,2.92,0,2.92,0,0-4.26,2.23-3.17,4.12,.82,1.44,3.53,1.88,4.78,2.01-1.11-.02-3.15,.28-1.99,2.97,1.55,3.61,13.79,7.38,13.79,7.38,0,0-10.38,4.29-17.81,0,0,0-2.63,1.2-.93,3.43,1.7,2.23,.93,2.75,.93,2.75,0,0-3.87-2.92-2.17,1.55,1.7,4.46,10.69,7.21,10.69,7.21,0,0-5.11,.86-3.56,3.61,1.55,2.75,8.06,6.01,15.18,6.7,7.13,.69,16.73-1.89,16.73-1.89,0,0-6.51,3.43-2.01,5.32,4.49,1.89,9.6-2.4,9.6-2.4,0,0-.93,4.39,2.79,2.88,3.72-1.51,6.82-4.43,6.82-4.43,0,0,1.16,6.48,3.48,4.93,2.32,1.55,3.48-4.93,3.48-4.93,0,0,3.1,2.92,6.82,4.43,3.72,1.51,2.79-2.88,2.79-2.88,0,0,5.11,4.29,9.6,2.4,4.49-1.89-2.01-5.32-2.01-5.32,0,0,9.6,2.58,16.73,1.89,7.13-.69,13.63-3.95,15.18-6.7,1.55-2.75-3.56-3.61-3.56-3.61,0,0,8.98-2.75,10.69-7.21,1.7-4.46-2.17-1.55-2.17-1.55Z" style="fill:#ebebeb;"></path></g><path d="M676.03,84.2c.6-4.39-5.6-8.01-10.25-8.38-2.22-.18-4.53,.16-6.63-.57-4.56-1.59-6.38-7.48-10.83-9.36-3.33-1.4-7.16-.15-10.38,1.47-3.23,1.62-6.41,3.67-10.02,3.9-3.13,.2-6.54-.96-9.28,.57-2.04,1.14-3.11,3.5-5,4.88-1.84,1.36-4.25,1.65-6.53,1.77-2.29,.12-4.65,.15-6.73,1.1-2.08,.95-3.8,3.15-3.37,5.4l79.04-.78Z" style="fill:#f5f5f5;"></path><path d="M221.46,67.06c.6-4.39-5.6-8.01-10.25-8.38-2.22-.18-4.53,.16-6.63-.57-4.56-1.59-6.38-7.48-10.83-9.36-3.33-1.4-7.16-.15-10.38,1.47-3.23,1.62-6.41,3.67-10.02,3.9-3.13,.2-6.54-.96-9.28,.57-2.04,1.14-3.11,3.5-5,4.88-1.84,1.36-4.25,1.65-6.53,1.77-2.29,.12-4.65,.15-6.73,1.1-2.08,.95-3.8,3.15-3.37,5.4l79.04-.78Z" style="fill:#f5f5f5;"></path><path d="M480.38,69.25c.6-4.39-5.6-8.01-10.25-8.38-2.22-.18-4.53,.16-6.63-.57-4.56-1.59-6.38-7.48-10.83-9.36-3.33-1.4-7.16-.15-10.38,1.47-3.23,1.62-6.41,3.67-10.02,3.9-3.13,.2-6.54-.96-9.28,.57-2.04,1.14-3.11,3.5-5,4.88-1.84,1.36-4.25,1.65-6.53,1.77-2.29,.12-4.65,.15-6.73,1.1-2.08,.95-3.8,3.15-3.37,5.4l79.04-.78Z" style="fill:#f5f5f5;"></path><path d="M544.74,98.67c.44-3.18-4.05-5.79-7.42-6.06-1.61-.13-3.28,.12-4.8-.41-3.3-1.15-4.62-5.41-7.84-6.77-2.41-1.02-5.18-.11-7.51,1.06-2.33,1.17-4.64,2.65-7.25,2.82-2.27,.15-4.73-.7-6.71,.41-1.48,.83-2.25,2.53-3.62,3.53-1.33,.98-3.07,1.19-4.73,1.28-1.65,.09-3.37,.11-4.87,.8-1.51,.69-2.75,2.28-2.44,3.91l57.18-.56Z" style="fill:#f5f5f5;"></path></g><g id="freepik--Floor--inject-190"><path d="M713.3,318.26c0,.14-152.57,.26-340.74,.26s-340.77-.12-340.77-.26,152.54-.26,340.77-.26,340.74,.12,340.74,.26Z" style="fill:#263238;"></path></g><g id="freepik--Trees--inject-190"><g><rect x="138.69" y="259.32" width="20.42" height="58.94" style="fill:#6f4439;"></rect><path d="M71.47,259.09s1.01-.67-1.21-3.55c-2.21-2.89,1.21-4.44,1.21-4.44,9.65,5.55,23.12,0,23.12,0,0,0-15.88-4.89-17.89-9.55-1.5-3.48,1.15-3.87,2.58-3.84-1.62-.17-5.13-.74-6.2-2.6-1.41-2.44,4.12-5.33,4.12-5.33,0,0-.9-1.33,0-3.78,.9-2.44,21.61-6,21.61-6-6.03,.67-8.24-5.33-8.24-5.33,0,0-10.25,.22-12.67-3.78-2.41-4,1.61-5.11,8.44-8.44,6.84-3.33,21.91-15.77,21.91-15.77,0,0-9.45-.89-12.06-3.11-2.61-2.22-.2-2.66-.2-2.66-11.26,1.11-7.44-4.89-7.44-4.89,15.08-4.66,23.12-14.88,23.12-14.88,0,0-7.04-1.55-10.66-4.89-3.62-3.33,3.02-4.22,3.02-4.22,0,0-13.27-1.78-5.63-6.66,5.81-3.71,15.1-8.71,17.98-10.21-3.16,1.16-10.34-.23-10.34-.23-8.44-3.78,0-9.33,0-9.33,9.85-5.55,24.33-19.54,24.33-19.54,0,0-7.24,3.78-10.86,2.66s4.02-5.55,4.02-5.55c0,0-3.82,1.11-5.43,0-1.61-1.11,4.22-6.22,4.22-6.22,8.67-5.61,19.35-20.34,23.82-26.67,4.47,6.33,15.15,21.06,23.82,26.67,0,0,5.83,5.11,4.22,6.22-1.61,1.11-5.43,0-5.43,0,0,0,7.64,4.44,4.02,5.55-3.62,1.11-10.86-2.66-10.86-2.66,0,0,14.47,13.99,24.33,19.54,0,0,8.44,5.55,0,9.33,0,0-7.18,1.39-10.34,.23,2.89,1.5,12.18,6.5,17.98,10.21,7.64,4.89-5.63,6.66-5.63,6.66,0,0,6.63,.89,3.02,4.22-3.62,3.33-10.66,4.89-10.66,4.89,0,0,8.04,10.22,23.12,14.88,0,0,3.82,6-7.44,4.89,0,0,2.41,.44-.2,2.66-2.61,2.22-12.06,3.11-12.06,3.11,0,0,15.08,12.44,21.91,15.77,6.84,3.33,10.86,4.44,8.44,8.44-2.41,4-12.67,3.78-12.67,3.78,0,0-2.21,6-8.24,5.33,0,0,20.71,3.55,21.61,6,.9,2.44,0,3.78,0,3.78,0,0,5.53,2.89,4.12,5.33-1.07,1.86-4.58,2.43-6.2,2.6,1.44-.03,4.08,.36,2.58,3.84-2.01,4.66-17.89,9.55-17.89,9.55,0,0,13.47,5.55,23.12,0,0,0,3.42,1.55,1.21,4.44-2.21,2.89-1.21,3.55-1.21,3.55,0,0,5.03-3.78,2.81,2-2.21,5.77-13.87,9.33-13.87,9.33,0,0,6.63,1.11,4.62,4.66-2.01,3.55-10.45,7.77-19.7,8.66-9.25,.89-21.71-2.44-21.71-2.44,0,0,8.44,4.44,2.61,6.89-5.83,2.44-12.46-3.11-12.46-3.11,0,0,1.21,5.68-3.62,3.73-4.83-1.95-8.85-5.73-8.85-5.73,0,0-1.51,8.38-4.52,6.37-3.01,2-4.52-6.37-4.52-6.37,0,0-4.02,3.78-8.85,5.73-4.82,1.95-3.62-3.73-3.62-3.73,0,0-6.63,5.55-12.46,3.11-5.83-2.44,2.61-6.89,2.61-6.89,0,0-12.46,3.33-21.71,2.44-9.25-.89-17.69-5.11-19.7-8.66-2.01-3.55,4.62-4.66,4.62-4.66,0,0-11.66-3.55-13.87-9.33-2.21-5.77,2.81-2,2.81-2Z" style="fill:#455a64;"></path><path d="M116.78,126.28c.11-.05,.22-.1,.31-.14-.11,.03-.22,.08-.31,.14Z"></path><g style="opacity:.1;"><path d="M131.92,103.51l4.79-1.87s2.64,3.93,7.65,1.34c5.01-2.59,7.68-7.68,7.68-7.68,0,0,7.03,4.64,7.76,1.7,.73-2.95-2.21-4.11-2.21-4.11,.23,.52,.46,1.15,.18,1.64-.31,.53-1.01,.51-1.56,.37-1.84-.45-3.54-1.56-4.79-3.12-1.41,3.34-4.28,5.64-7.23,7.35-1.29,.75-2.77,1.43-4.17,.98-1.4-.45-2.33-2.62-1.29-3.74-2.21,2.9-5.5,4.75-8.92,5.02-.73,.06-1.68-.13-1.82-.93-.08-.47,.18-.92,.44-1.3,1.04-1.51,2.32-2.82,3.76-3.85-3.23,2.37-7.02,3.8-10.89,4.12l-3.4,.46c-.12,.41-.07,.74,.22,.94,1.61,1.11,5.43,0,5.43,0,0,0-7.64,4.44-4.02,5.55,3.62,1.11,10.86-2.66,10.86-2.66,0,0-.32,.31-.89,.85l2.44-1.05Z"></path></g><g style="opacity:.1;"><path d="M174.67,133.37l-9.29-3.35s-1.04,5.65-6.73,5.34c0,0-4.93,.42-5.31-5.34,0,0-4.74,4.61-14.31,3.25,0,0-1.61-.21-1.23-2.83,0,0-2.56,3.25-6.92,.94-4.36-2.3-.57-6.18-.57-6.18l.59-.31c-.4,.77-.8,1.7-.46,2.51,.49,1.15,1.98,1.07,3.08,.72,3.05-.96,5.93-2.57,8.43-4.73-.68,.81-1.37,1.64-1.74,2.66-.37,1.02-.36,2.29,.3,3.12,.64,.81,1.7,1.01,2.67,1.06,4.81,.27,9.69-1.95,12.93-5.88,.05,1.49-.31,2.97-.26,4.45,.06,1.49,.69,3.13,1.98,3.57,1.53,.53,3.09-.9,3.76-2.51,.67-1.6,.82-3.44,1.54-5.02,2.27,2.25,5.01,3.92,7.94,4.86,.83,.26,1.69,.47,2.54,.32,.85-.15,1.69-.72,1.98-1.61,.26-.77-.02-1.75-.64-2.15,3.72,1.69,12.34,4.69,14.04,.5,.9,1.81,.71,4.01-3.31,5.81,0,0-7.18,1.39-10.34,.23,.54,.28,1.31,.69,2.25,1.19l-2.91-.63Z"></path></g><g style="opacity:.1;"><path d="M109.98,160.67c2.39-.37,4.72-1.25,6.8-2.6,.62,1.84,2.69,2.66,4.44,2.33,1.75-.33,3.26-1.51,4.7-2.66,1.28,1.86,3.33,3.04,5.43,3.13,2.11,.09,4.24-.9,5.65-2.63,5.87,4.33,12.84,7.51,19.85,6.57,1.29-.17,2.67-.55,3.51-1.66,.83-1.11,.71-3.13-.5-3.66,4.28,.92,8.72,1.84,12.95,.66s7.63-4.69,6.72-10.17c-.19,.86-.57,2.2-1.1,3.06-.53,.87-1.49,1.27-2.39,1.58-7.03,2.37-14.86,1.72-21.5-1.79,1.41,1.55,.44,4.45-1.33,5.46-1.77,1.01-3.89,.69-5.85,.31-2.14-.41-4.31-.88-6.29-1.86-1.99-.98-3.81-2.54-4.82-4.67-.81,1.43-1.65,2.9-2.88,3.9-1.24,.99-2.98,1.41-4.3,.56-1.32-.85-1.76-3.19-.59-4.27-2.84,1.76-5.94,3.01-9.13,3.68-.8,.17-1.75,.25-2.31-.41-.56-.66-.39-1.79,.15-2.48,.2-.26,.44-.47,.7-.65-4.49,2.18-9.52,3.01-14.39,2.36l-.07,.89c3.67,2.14,8.25,3.15,8.25,3.15,0,0-.57,.73-1.69,1.88Z"></path></g><g style="opacity:.1;"><path d="M187.92,191.17c-4.43-.26-8.71-1.77-12.88-3.44-7.16,5.18-17.12,5.12-24.23-.13-5.5,5.16-14.17,5.67-20.13,1.18-3.17,1.46-6.64,2.62-10.01,1.88-3.37-.74-6.51-3.92-6.4-7.71,2.04,2.45,5.04,3.9,8.06,3.9,3.02,0,6.01-1.46,8.05-3.92,2.35,3.09,6.07,4.86,9.72,4.61,3.65-.25,7.15-2.5,9.14-5.89,4.61,3.86,10.62,5.62,16.35,4.78,1.64-.24,3.32-.72,4.56-1.92,1.24-1.2,1.91-3.28,1.18-4.92,7.5,5.77,18.23,5.83,25.77,.12l.06,.14c-.14,.36-.48,.81-1.14,1.37-2.61,2.22-12.06,3.11-12.06,3.11,0,0,3.76,3.1,8.38,6.62-1.46,.23-2.95,.3-4.42,.21Z"></path></g><g style="opacity:.1;"><path d="M83.79,211.68c3.35,.71,6.77,.64,6.77,.64,0,0,2.21,6,8.24,5.33,0,0-3,.52-6.77,1.29,4.56,1.75,9.86,1.16,13.93-1.74,7.34,7.4,19.63,7.81,27.36,.92,7.44,6.69,19.1,6.81,26.66,.28,4.11,3.73,9.53,5.9,14.8,5.15,5.27-.75,10.25-4.71,11.93-10.28-8.22,5.85-19.88,4.97-27.3-2.06-.1,1.75-1.42,3.19-2.91,3.81-1.49,.62-3.13,.57-4.71,.49-6.49-.33-13.36-1.35-18.4-5.88-3.21,4.2-8.34,6.51-13.29,5.99-4.95-.52-9.59-3.85-12.03-8.64-9.12,4.75-20.24,4.52-29.18-.62l4.9,5.35Z"></path></g><g style="opacity:.1;"><path d="M124.39,241.07c-.13,2.07,1.08,4.05,2.69,5.13,1.61,1.08,3.54,1.41,5.42,1.47,5.7,.19,11.45-1.89,15.94-5.78,3.41,4.23,8.5,6.74,13.62,6.73,5.13-.01,10.2-2.55,13.6-6.79,12.73,3.56,26.67,1.58,38.17-5.42l1.73,.95c0,.49-.13,1.08-.44,1.82-2.01,4.66-17.89,9.55-17.89,9.55,0,0,1.61,.66,4.12,1.3-2.74,.83-5.12,1.51-6.62,1.99-5.6,1.79-12.16,.76-16.36-3.7-3.87,4.55-9.51,7.2-15.16,7.15-5.65-.06-11.24-2.82-15.04-7.45-3.66,4.14-8.48,7.37-13.72,7.56-5.23,.19-10.75-3.3-12.17-8.87-6.48,2.35-14.21-.57-18.03-6.81,6.05,3.83,13.76,4.28,20.13,1.16Z"></path></g></g><g><rect x="568.25" y="275" width="17.44" height="43.26" transform="translate(1153.93 593.26) rotate(180)" style="fill:#6f4439;"></rect><path d="M643.09,274.8s-.86-.57,1.03-3.03c1.89-2.47-1.03-3.79-1.03-3.79-8.24,4.74-19.74,0-19.74,0,0,0,13.56-4.17,15.28-8.16,1.28-2.97-.98-3.3-2.21-3.28,1.38-.14,4.38-.63,5.3-2.22,1.2-2.09-3.52-4.55-3.52-4.55,0,0,.77-1.14,0-3.22-.77-2.09-18.46-5.12-18.46-5.12,5.15,.57,7.04-4.55,7.04-4.55,0,0,8.76,.19,10.82-3.22,2.06-3.41-1.37-4.36-7.21-7.21-5.84-2.84-18.71-13.47-18.71-13.47,0,0,8.07-.76,10.3-2.66,2.23-1.9,.17-2.28,.17-2.28,9.61,.95,6.35-4.17,6.35-4.17-12.88-3.98-19.74-12.71-19.74-12.71,0,0,6.01-1.33,9.1-4.17,3.09-2.85-2.58-3.6-2.58-3.6,0,0,11.33-1.52,4.81-5.69-4.96-3.17-12.89-7.44-15.36-8.72,2.7,.99,8.83-.19,8.83-.19,7.21-3.22,0-7.97,0-7.97-8.41-4.74-20.77-16.69-20.77-16.69,0,0,6.18,3.22,9.27,2.28,3.09-.95-3.43-4.74-3.43-4.74,0,0,3.26,.95,4.64,0,1.37-.95-3.61-5.31-3.61-5.31-7.4-4.79-16.53-17.37-20.34-22.78-3.82,5.4-12.94,17.98-20.34,22.78,0,0-4.98,4.36-3.61,5.31,1.37,.95,4.64,0,4.64,0,0,0-6.52,3.79-3.43,4.74,3.09,.95,9.27-2.28,9.27-2.28,0,0-12.36,11.95-20.77,16.69,0,0-7.21,4.74,0,7.97,0,0,6.13,1.18,8.83,.19-2.47,1.28-10.4,5.55-15.36,8.72-6.52,4.17,4.81,5.69,4.81,5.69,0,0-5.67,.76-2.57,3.6,3.09,2.84,9.1,4.17,9.1,4.17,0,0-6.87,8.72-19.74,12.71,0,0-3.26,5.12,6.35,4.17,0,0-2.06,.38,.17,2.28,2.23,1.9,10.3,2.66,10.3,2.66,0,0-12.88,10.62-18.71,13.47-5.84,2.84-9.27,3.79-7.21,7.21,2.06,3.41,10.82,3.22,10.82,3.22,0,0,1.89,5.12,7.04,4.55,0,0-17.69,3.03-18.46,5.12-.77,2.09,0,3.22,0,3.22,0,0-4.72,2.47-3.52,4.55,.91,1.59,3.91,2.08,5.3,2.22-1.23-.02-3.49,.31-2.21,3.28,1.72,3.98,15.28,8.16,15.28,8.16,0,0-11.5,4.74-19.74,0,0,0-2.92,1.33-1.03,3.79,1.89,2.47,1.03,3.03,1.03,3.03,0,0-4.29-3.22-2.4,1.71,1.89,4.93,11.85,7.97,11.85,7.97,0,0-5.67,.95-3.95,3.98,1.72,3.03,8.93,6.64,16.83,7.4,7.9,.76,18.54-2.09,18.54-2.09,0,0-7.21,3.79-2.23,5.88,4.98,2.09,10.64-2.66,10.64-2.66,0,0-1.03,4.85,3.09,3.19,4.12-1.67,7.55-4.89,7.55-4.89,0,0,1.29,7.15,3.86,5.44,2.57,1.71,3.86-5.44,3.86-5.44,0,0,3.43,3.22,7.55,4.89,4.12,1.67,3.09-3.19,3.09-3.19,0,0,5.67,4.74,10.64,2.66,4.98-2.09-2.23-5.88-2.23-5.88,0,0,10.64,2.85,18.54,2.09,7.9-.76,15.11-4.36,16.83-7.4,1.72-3.03-3.95-3.98-3.95-3.98,0,0,9.96-3.03,11.85-7.97,1.89-4.93-2.4-1.71-2.4-1.71Z" style="fill:#455a64;"></path><path d="M604.4,161.39c-.09-.04-.18-.08-.27-.12,.1,.03,.19,.07,.27,.12Z"></path><g style="opacity:.1;"><path d="M591.47,141.94l-4.09-1.6s-2.26,3.35-6.54,1.14c-4.28-2.21-6.56-6.56-6.56-6.56,0,0-6,3.96-6.62,1.45-.62-2.52,1.88-3.51,1.88-3.51-.2,.44-.4,.99-.15,1.4,.26,.45,.86,.44,1.33,.32,1.57-.39,3.02-1.33,4.09-2.66,1.2,2.85,3.65,4.81,6.17,6.28,1.1,.64,2.37,1.22,3.56,.83,1.2-.39,1.99-2.23,1.1-3.2,1.89,2.47,4.7,4.06,7.62,4.28,.63,.05,1.43-.11,1.56-.79,.07-.4-.15-.78-.37-1.11-.89-1.29-1.98-2.41-3.21-3.29,2.76,2.02,6,3.25,9.3,3.52l2.91,.39c.1,.35,.06,.63-.19,.8-1.37,.95-4.64,0-4.64,0,0,0,6.52,3.79,3.43,4.74-3.09,.95-9.27-2.28-9.27-2.28,0,0,.28,.27,.76,.72l-2.08-.9Z"></path></g><g style="opacity:.1;"><path d="M554.96,167.44l7.93-2.86s.89,4.83,5.75,4.56c0,0,4.21,.36,4.53-4.56,0,0,4.05,3.93,12.22,2.77,0,0,1.38-.18,1.05-2.41,0,0,2.19,2.77,5.91,.8,3.72-1.97,.49-5.28,.49-5.28l-.5-.27c.34,.66,.68,1.45,.39,2.14-.42,.98-1.69,.91-2.63,.61-2.6-.82-5.06-2.2-7.2-4.04,.58,.69,1.17,1.4,1.49,2.27,.32,.87,.3,1.95-.25,2.66-.55,.69-1.45,.86-2.28,.91-4.11,.23-8.27-1.67-11.04-5.02-.04,1.27,.27,2.53,.22,3.8-.05,1.27-.59,2.67-1.69,3.05-1.3,.45-2.64-.77-3.21-2.14-.58-1.37-.7-2.93-1.32-4.28-1.94,1.92-4.28,3.35-6.78,4.15-.71,.23-1.45,.4-2.17,.28-.73-.13-1.44-.61-1.69-1.37-.22-.66,.02-1.49,.55-1.83-3.18,1.44-10.54,4.01-11.99,.42-.77,1.55-.6,3.42,2.83,4.96,0,0,6.13,1.18,8.83,.19-.46,.24-1.12,.59-1.92,1.01l2.48-.54Z"></path></g><g style="opacity:.1;"><path d="M610.2,190.76c-2.04-.31-4.03-1.07-5.81-2.22-.53,1.57-2.3,2.27-3.79,1.99-1.5-.28-2.79-1.29-4.02-2.27-1.09,1.58-2.84,2.59-4.64,2.67-1.8,.08-3.62-.77-4.82-2.25-5.01,3.69-10.97,6.42-16.95,5.61-1.11-.15-2.28-.47-2.99-1.42-.71-.95-.61-2.67,.43-3.13-3.65,.79-7.45,1.57-11.06,.56-3.61-1.01-6.52-4-5.74-8.69,.16,.73,.49,1.88,.94,2.62,.45,.74,1.27,1.09,2.04,1.35,6.01,2.02,12.69,1.46,18.36-1.53-1.2,1.32-.37,3.8,1.14,4.66,1.51,.86,3.32,.59,4.99,.27,1.83-.35,3.68-.75,5.37-1.59,1.7-.84,3.26-2.17,4.11-3.99,.69,1.22,1.4,2.48,2.46,3.33,1.05,.85,2.55,1.2,3.67,.48,1.13-.72,1.51-2.73,.5-3.64,2.42,1.51,5.07,2.57,7.8,3.15,.68,.14,1.5,.21,1.97-.35,.48-.57,.33-1.53-.12-2.11-.17-.22-.38-.4-.6-.56,3.84,1.86,8.13,2.57,12.29,2.02l.06,.76c-3.13,1.83-7.04,2.69-7.04,2.69,0,0,.49,.62,1.45,1.6Z"></path></g><g style="opacity:.1;"><path d="M543.64,216.8c3.78-.23,7.44-1.51,11-2.93,6.11,4.42,14.62,4.37,20.69-.11,4.7,4.41,12.1,4.84,17.19,1.01,2.71,1.25,5.67,2.24,8.55,1.61,2.88-.63,5.56-3.35,5.47-6.58-1.75,2.09-4.3,3.33-6.88,3.33-2.58,0-5.13-1.25-6.87-3.35-2.01,2.64-5.19,4.15-8.3,3.94-3.12-.21-6.1-2.14-7.8-5.03-3.93,3.3-9.07,4.8-13.96,4.08-1.4-.21-2.83-.62-3.9-1.64-1.06-1.02-1.63-2.8-1.01-4.2-6.4,4.93-15.57,4.97-22.01,.1l-.05,.12c.12,.31,.41,.69,.97,1.17,2.23,1.9,10.3,2.66,10.3,2.66,0,0-3.21,2.65-7.16,5.66,1.25,.2,2.52,.26,3.77,.18Z"></path></g><g style="opacity:.1;"><path d="M632.57,234.32c-2.86,.6-5.79,.54-5.79,.54,0,0-1.89,5.12-7.04,4.55,0,0,2.56,.44,5.78,1.1-3.89,1.49-8.42,.99-11.89-1.49-6.27,6.32-16.76,6.67-23.37,.78-6.36,5.71-16.31,5.81-22.76,.24-3.51,3.18-8.14,5.04-12.64,4.39-4.5-.64-8.75-4.02-10.19-8.78,7.02,4.99,16.97,4.24,23.32-1.76,.09,1.5,1.21,2.72,2.49,3.25,1.27,.53,2.67,.49,4.03,.42,5.54-.28,11.41-1.15,15.71-5.02,2.74,3.58,7.12,5.56,11.35,5.11,4.23-.44,8.19-3.29,10.27-7.38,7.79,4.06,17.28,3.86,24.92-.53l-4.18,4.57Z"></path></g><g style="opacity:.1;"><path d="M597.9,259.42c.11,1.77-.93,3.46-2.3,4.38-1.37,.93-3.02,1.2-4.63,1.26-4.87,.16-9.78-1.61-13.61-4.94-2.91,3.61-7.26,5.76-11.63,5.75-4.38,0-8.71-2.17-11.61-5.8-10.88,3.04-22.77,1.35-32.6-4.63l-1.48,.81c0,.41,.11,.92,.38,1.55,1.72,3.98,15.28,8.16,15.28,8.16,0,0-1.38,.57-3.52,1.11,2.34,.71,4.37,1.29,5.65,1.7,4.78,1.53,10.39,.65,13.98-3.16,3.31,3.88,8.12,6.15,12.95,6.1,4.83-.05,9.6-2.41,12.84-6.36,3.13,3.53,7.24,6.29,11.71,6.46,4.47,.16,9.18-2.81,10.39-7.57,5.53,2.01,12.14-.49,15.4-5.82-5.17,3.27-11.75,3.65-17.19,.99Z"></path></g></g></g><g id="freepik--Birds--inject-190"><g><path d="M426.07,164.67s-.68-.24-1.94-.52c-1.26-.28-3.14-.52-5.43-.21-2.27,.3-4.96,1.22-7.31,3.15-2.35,1.9-4.36,4.78-5.16,8.2l-.02,.09-.15,.59-.22-.56c-1.31-3.24-3.65-5.82-6.18-7.46-2.54-1.67-5.27-2.36-7.55-2.52-2.29-.16-4.15,.17-5.39,.49-1.24,.33-1.9,.62-1.92,.58,0-.01,.16-.09,.47-.23,.31-.14,.78-.32,1.41-.5,1.24-.37,3.12-.75,5.45-.62,2.32,.12,5.12,.8,7.73,2.49,2.6,1.66,5,4.29,6.35,7.62l-.38,.03,.02-.09c.83-3.51,2.9-6.46,5.32-8.39,2.43-1.97,5.19-2.88,7.51-3.15,2.33-.28,4.24,.01,5.5,.34,.63,.16,1.11,.32,1.43,.45,.32,.13,.48,.2,.48,.21Z" style="fill:#263238;"></path><path d="M480.34,137.89s-.38-.11-1.08-.25c-.69-.14-1.72-.26-2.97-.09-1.24,.17-2.7,.68-3.98,1.74-1.28,1.04-2.37,2.61-2.8,4.46v.05l-.16,.59-.22-.56c-.71-1.77-1.98-3.17-3.36-4.07-1.38-.91-2.87-1.3-4.11-1.39-1.25-.1-2.27,.07-2.95,.24-.68,.17-1.05,.32-1.06,.29,0-.01,.08-.06,.25-.14,.17-.08,.43-.19,.77-.29,.68-.22,1.72-.43,3.01-.37,1.28,.06,2.84,.43,4.29,1.36,1.45,.92,2.78,2.38,3.53,4.23l-.38,.03v-.05c.47-1.95,1.63-3.59,2.97-4.66,1.35-1.09,2.89-1.59,4.17-1.73,1.29-.15,2.35,.02,3.04,.21,.35,.09,.61,.19,.78,.27,.17,.08,.26,.12,.26,.13Z" style="fill:#263238;"></path><path d="M444.86,125.7s-.37,.43-1.04,1.18c-.67,.76-1.59,1.91-2.55,3.44-1.92,3.03-3.85,7.85-3.78,13.38v.17l-.39,.03c-.41-2.7-1.31-5.18-2.45-7.25-1.13-2.08-2.47-3.76-3.73-5.03-1.26-1.27-2.4-2.17-3.23-2.74-.82-.57-1.3-.86-1.28-.89,0-.01,.13,.05,.37,.17,.23,.13,.59,.3,1,.59,.86,.53,2.04,1.41,3.34,2.67,1.3,1.26,2.68,2.95,3.85,5.05,1.17,2.09,2.1,4.61,2.52,7.37l-.39,.03v-.17c-.07-5.63,1.94-10.52,3.94-13.54,1-1.53,1.96-2.66,2.67-3.39,.34-.38,.65-.63,.84-.82,.2-.18,.31-.27,.32-.26Z" style="fill:#263238;"></path></g></g><g id="freepik--Plants--inject-190"><g><path d="M250.35,283.25c1.7,.53,3.05,1.91,3.83,3.51,.78,1.6,1.02,3.42,1.01,5.2-.03,3.45-1.6,7.09-3.39,10.03-3.13-2.2-4.25-6.5-4.69-8.71-.68-3.5,.21-10.24,3.24-10.03" style="fill:#455a64;"></path><path d="M255.72,307.26c-.66-1.88-.09-4.07,1.25-5.55,1.34-1.47,3.34-2.25,5.33-2.31,.92-.03,1.93,.14,2.54,.83,.56,.65,.61,1.64,.3,2.44-.32,.8-.94,1.44-1.62,1.97-2.32,1.82-4.9,3.16-7.8,2.61" style="fill:#455a64;"></path><path d="M253.15,318.1s0-.25,.03-.71c.04-.5,.09-1.15,.15-1.93,.15-1.61,.32-3.92,1.31-6.25,.98-2.32,2.51-4.11,3.85-5.07,.67-.49,1.26-.8,1.69-.97,.21-.1,.38-.14,.5-.18,.11-.04,.18-.05,.18-.04,.03,.05-.97,.34-2.25,1.34-1.29,.97-2.76,2.74-3.73,5.02-.98,2.28-1.17,4.56-1.37,6.17-.09,.81-.16,1.47-.23,1.92-.06,.45-.11,.7-.12,.7Z" style="fill:#263238;"></path><path d="M250.12,288.44s.03,.1,.07,.3c.04,.23,.09,.51,.15,.87,.12,.76,.28,1.86,.47,3.22,.38,2.72,.85,6.48,1.27,10.65,.42,4.17,.72,7.95,.9,10.69,.09,1.37,.15,2.48,.18,3.25,.01,.36,.02,.66,.03,.88,0,.2,0,.31,0,.31,0,0-.02-.1-.04-.31-.02-.23-.05-.52-.08-.88-.06-.8-.15-1.9-.26-3.24-.22-2.74-.55-6.51-.97-10.68-.42-4.17-.86-7.93-1.2-10.66-.16-1.34-.3-2.43-.39-3.23-.04-.36-.07-.65-.1-.88-.02-.2-.03-.31-.02-.31Z" style="fill:#263238;"></path><path d="M250.98,309.86c-1.09-4.05-4.26-7.48-8.21-8.89-1.01-.36-2.29-.53-3,.27-.71,.8-.4,2.06,.09,3.01,2.04,3.96,6.67,6.41,11.09,5.89" style="fill:#455a64;"></path><path d="M243.57,304.15s.23,.06,.64,.2c.2,.07,.45,.16,.73,.29,.27,.13,.6,.26,.93,.46,.34,.19,.71,.39,1.08,.65,.39,.24,.77,.54,1.17,.86,.78,.65,1.59,1.45,2.3,2.39,.71,.95,1.25,1.94,1.65,2.88,.19,.48,.37,.93,.49,1.37,.14,.43,.22,.85,.3,1.22,.09,.37,.11,.73,.16,1.03,.05,.3,.05,.57,.06,.78,.01,.43,.01,.67,0,.67-.06,0-.06-.95-.39-2.44-.09-.37-.18-.78-.33-1.2-.12-.43-.31-.87-.5-1.34-.41-.92-.95-1.89-1.64-2.82-.7-.92-1.49-1.71-2.25-2.36-.39-.32-.76-.62-1.14-.86-.36-.27-.72-.47-1.05-.67-1.33-.75-2.23-1.05-2.21-1.11Z" style="fill:#263238;"></path></g><g><path d="M57.83,290.33c1.34,.42,2.4,1.5,3.01,2.76,.61,1.26,.8,2.69,.79,4.09-.02,2.71-1.25,5.57-2.67,7.88-2.46-1.73-3.34-5.1-3.68-6.84-.54-2.75,.16-8.05,2.55-7.88" style="fill:#455a64;"></path><path d="M62.05,309.19c-.52-1.47-.07-3.2,.98-4.36,1.05-1.16,2.63-1.77,4.19-1.81,.72-.02,1.52,.11,1.99,.65,.44,.51,.48,1.29,.23,1.91-.25,.63-.74,1.13-1.27,1.55-1.82,1.43-3.85,2.48-6.13,2.05" style="fill:#455a64;"></path><path d="M60.03,317.7s0-.2,.02-.56c.03-.39,.07-.9,.12-1.51,.12-1.27,.25-3.08,1.03-4.91,.77-1.82,1.97-3.23,3.02-3.98,.52-.38,.99-.62,1.32-.76,.16-.08,.3-.11,.39-.14,.09-.03,.14-.04,.14-.03,.02,.04-.76,.27-1.77,1.05-1.01,.76-2.17,2.15-2.93,3.95-.77,1.79-.92,3.58-1.07,4.85-.07,.64-.13,1.15-.18,1.51-.05,.36-.09,.55-.1,.55Z" style="fill:#263238;"></path><path d="M57.65,294.41s.02,.08,.05,.24l.11,.69c.1,.6,.22,1.46,.37,2.53,.3,2.14,.66,5.09,1,8.37,.33,3.28,.57,6.25,.7,8.4,.07,1.08,.12,1.95,.14,2.55,.01,.28,.02,.51,.03,.69,0,.16,0,.24,0,.24,0,0-.02-.08-.04-.24-.02-.18-.04-.41-.06-.69-.05-.63-.12-1.49-.21-2.54-.17-2.15-.43-5.12-.76-8.39-.33-3.27-.68-6.23-.94-8.37-.13-1.05-.23-1.91-.31-2.53-.03-.28-.06-.51-.08-.69-.02-.16-.02-.24-.01-.24Z" style="fill:#263238;"></path><path d="M58.32,311.23c-.86-3.18-3.35-5.88-6.45-6.98-.79-.28-1.8-.41-2.36,.21-.56,.63-.32,1.62,.07,2.37,1.6,3.11,5.24,5.04,8.71,4.63" style="fill:#455a64;"></path><path d="M52.51,306.75s.18,.04,.5,.16c.16,.06,.35,.13,.57,.23,.22,.11,.47,.2,.73,.36,.26,.15,.56,.3,.85,.51,.3,.19,.6,.42,.92,.67,.62,.51,1.25,1.14,1.81,1.88,.55,.74,.98,1.52,1.3,2.26,.15,.37,.29,.73,.38,1.07,.11,.34,.18,.67,.24,.96,.07,.29,.09,.57,.12,.81,.04,.24,.04,.44,.05,.61,.01,.34,.01,.52,0,.52-.04,0-.05-.75-.3-1.92-.07-.29-.14-.61-.26-.94-.1-.34-.24-.68-.39-1.05-.32-.72-.75-1.48-1.29-2.21-.55-.73-1.17-1.34-1.77-1.85-.31-.25-.6-.48-.89-.68-.28-.21-.57-.37-.83-.52-1.04-.59-1.75-.83-1.74-.87Z" style="fill:#263238;"></path></g><g><path d="M677.6,288.56c1.34,.42,2.4,1.5,3.01,2.76s.8,2.69,.79,4.09c-.02,2.71-1.25,5.57-2.67,7.88-2.46-1.73-3.34-5.1-3.68-6.84-.54-2.75,.16-8.05,2.55-7.88" style="fill:#455a64;"></path><path d="M681.82,307.42c-.52-1.47-.07-3.2,.98-4.36,1.05-1.16,2.63-1.77,4.19-1.81,.72-.02,1.52,.11,1.99,.65,.44,.51,.48,1.29,.23,1.91-.25,.63-.74,1.13-1.27,1.55-1.82,1.43-3.85,2.48-6.13,2.05" style="fill:#455a64;"></path><path d="M679.8,315.93s0-.2,.02-.56c.03-.39,.07-.9,.12-1.51,.12-1.27,.25-3.08,1.03-4.91,.77-1.82,1.97-3.23,3.02-3.98,.52-.38,.99-.62,1.32-.76,.16-.08,.3-.11,.39-.14,.09-.03,.14-.04,.14-.03,.02,.04-.76,.27-1.77,1.05-1.01,.76-2.17,2.15-2.93,3.95-.77,1.79-.92,3.58-1.07,4.85-.07,.64-.13,1.15-.18,1.51-.05,.36-.09,.55-.1,.55Z" style="fill:#263238;"></path><path d="M677.42,292.64s.02,.08,.05,.24c.03,.18,.07,.4,.11,.69,.1,.6,.22,1.46,.37,2.53,.3,2.14,.66,5.09,1,8.37,.33,3.28,.57,6.25,.7,8.4,.07,1.08,.12,1.95,.14,2.55,.01,.28,.02,.51,.03,.69,0,.16,0,.24,0,.24,0,0-.02-.08-.04-.24-.02-.18-.04-.41-.06-.69-.05-.63-.12-1.49-.21-2.54-.17-2.15-.43-5.12-.76-8.39-.33-3.27-.68-6.23-.94-8.37-.13-1.05-.23-1.91-.31-2.53-.03-.28-.06-.51-.08-.69-.02-.16-.02-.24-.01-.24Z" style="fill:#263238;"></path><path d="M678.09,309.46c-.86-3.18-3.35-5.88-6.45-6.98-.79-.28-1.8-.41-2.36,.21-.56,.63-.32,1.62,.07,2.37,1.6,3.11,5.24,5.04,8.71,4.63" style="fill:#455a64;"></path><path d="M672.28,304.98s.18,.04,.5,.16c.16,.06,.35,.13,.57,.23,.22,.1,.47,.2,.73,.36,.26,.15,.56,.3,.85,.51,.3,.19,.6,.42,.92,.67,.62,.51,1.25,1.14,1.81,1.88,.55,.74,.98,1.52,1.3,2.26,.15,.37,.29,.73,.38,1.07,.11,.34,.18,.67,.24,.96,.07,.29,.09,.57,.12,.81,.04,.24,.04,.44,.05,.61,.01,.34,.01,.52,0,.52-.04,0-.05-.75-.3-1.92-.07-.29-.14-.61-.26-.94-.1-.34-.24-.68-.39-1.05-.32-.72-.75-1.48-1.29-2.21-.55-.73-1.17-1.34-1.77-1.85-.31-.25-.6-.48-.89-.68-.28-.21-.57-.37-.83-.52-1.04-.59-1.75-.83-1.74-.87Z" style="fill:#263238;"></path></g></g><g id="freepik--Sun--inject-190"><g><g><circle cx="306.7" cy="102.28" r="28.76" style="fill:#000000;"></circle><g style="opacity:.9;"><circle cx="306.7" cy="102.28" r="28.76" style="fill:#fff;"></circle></g></g><g><circle cx="306.7" cy="102.28" r="25.65" style="fill:#000000;"></circle><g style="opacity:.6;"><circle cx="306.7" cy="102.28" r="25.65" style="fill:#fff;"></circle></g></g><g><circle cx="306.7" cy="102.28" r="21.34" style="fill:#000000;"></circle><g style="opacity:.3;"><circle cx="306.7" cy="102.28" r="21.34" style="fill:#fff;"></circle></g></g><circle cx="306.7" cy="102.28" r="17.09" style="fill:#000000;"></circle></g></g><g id="freepik--Car--inject-190"><g><path d="M637.32,324.42s10.43-.68,13.78,.36c3.35,1.04,12.59,16.71,12.59,16.71l-26.37-17.07Z" style="fill:#000000;"></path><path d="M637.32,324.42s10.43-.68,13.78,.36c3.35,1.04,12.59,16.71,12.59,16.71l-26.37-17.07Z" style="opacity:.3;"></path><path d="M465.77,297.36s106.09,22.11,104.63,24.38c-1.47,2.27-74.73,0-74.73,0l-33.33-17.15,3.44-7.23Z" style="fill:#455a64;"></path><path d="M219.1,342.95s68.39-43.33,112.05-49.24l8.25,7.64s-86.59,46.46-88.06,46.83-32.24-5.23-32.24-5.23Z" style="fill:#455a64;"></path><g><polygon points="327.37 429.63 90.51 429.63 90.51 364.5 184.65 350.33 327.37 364.5 327.37 429.63" style="fill:#000000;"></polygon><polygon points="327.37 429.63 90.51 429.63 90.51 364.5 184.65 350.33 327.37 364.5 327.37 429.63" style="opacity:.6;"></polygon></g><g><polygon points="440.1 425.45 676.96 425.45 676.96 360.32 599.85 334.31 440.1 360.32 440.1 425.45" style="fill:#000000;"></polygon><polygon points="440.1 425.45 676.96 425.45 676.96 360.32 599.85 334.31 440.1 360.32 440.1 425.45" style="opacity:.6;"></polygon></g><path d="M54.99,399.66c0,.34,3.65,9.68,2.85,12.08-.8,2.39-7.59,6.15-7.59,6.15v2.28h14.31s6.84-11.16,6.49-11.16-11.73-11.28-12.08-11.28-3.99,1.94-3.99,1.94Z" style="fill:#263238;"></path><path d="M687.75,363.07c.25-3.3-40.84-35.52-47.69-38.07-6.85-2.55-74.84-3.28-74.84-3.28-48.71-6.34-85.5-18.27-92.6-19.79-7.1-1.52-6.85-4.57-6.85-4.57,0,0-37.04-9.13-78.65-9.64-41.61-.51-58.35,6.85-58.35,6.85l6.09,3.3c-32.98,10.15-78.9,43.64-78.9,43.64l-30.95-2.03c-27.15-1.78-64.44,3.3-64.44,3.3-74.59,11.67-110.1,48.71-110.1,48.71l1,9.64s8.2,1.62,9.01,10.53c.69,7.6-.63,13.57-.63,13.57l-9.39,2.79c-3.3,6.6,31.2,9.13,31.2,9.13,13.46,1.39,33.02,2.21,54.04,2.67-4.25-8.68-6.48-18.54-6.06-28.95,1.27-31.16,26.72-56.49,57.88-57.63,34.27-1.26,62.45,26.16,62.45,60.15,0,5.6,.28,18.17-.68,26.55h281.91l2.13-.15c-.36-9.69-.94-30.09,.22-38.15,4.7-32.91,28.48-54.38,61.73-54.38s60.19,26.95,60.19,60.19c0,4.95,.22,15.33-.39,23.46,5.46-1.17,21.3-4.65,22.76-5.69,1.78-1.27,5.33-31.2,5.33-31.2l4.57-3.55s-.25-24.1,0-27.4Z" style="fill:#000000;"></path><g style="opacity:.3;"><path d="M60.48,411.66c.69,7.6-.63,13.57-.63,13.57l-9.39,2.79c-3.3,6.6,31.2,9.13,31.2,9.13,13.46,1.39,33.02,2.21,54.04,2.67-3.91-7.98-6.11-16.95-6.11-26.43,0-19.11,8.91-36.12,22.79-47.15-5.38,3.85-21.29,13.6-47.85,16.43-33.36,3.56-54.08,8.81-54.08,8.81l1,9.64s8.2,1.62,9.01,10.53Z"></path><path d="M154.48,364.66h0s-.04,.02-.09,.07c.03-.02,.06-.04,.09-.07Z"></path><path d="M660.99,402.93c1.06-15.57-8.49-60.86-60.86-62.63-22.91-.77-38.85,5.56-49.52,12.94-18.15,12.53-39.9,18.75-61.87,16.84-47.27-4.12-120.81-10.22-153.99-11.37-50.95-1.77-101.86,12.66-102.38,12.14h0c10.89,10.89,17.62,25.94,17.62,42.55,0,5.6,.28,18.17-.68,26.55h281.91l2.13-.15c-.36-9.69-.94-30.09,.22-38.15,4.7-32.91,28.48-54.38,61.73-54.38s60.19,26.95,60.19,60.19c0,4.95,.22,15.33-.39,23.46,5.46-1.17,21.3-4.65,22.76-5.69,1.14-.81,3-13.36,4.19-22.3h-21.06Z"></path></g><path d="M85.9,375.98s9.62-3.41,16.45-6.7c4.48-2.16,19.4-9.59,29.15-14.46,1.03-.51,.42-2.07-.69-1.75-12.89,3.71-35.14,10.57-42.26,15.56l-2.66,7.35Z" style="opacity:.3;"></path><path d="M69.53,379.6c-1.04,.78,13.91-2.35,16.91-3.85,3-1.5,29.33-16.91,29.33-16.91,0,0-27.62,6.86-46.24,20.77Z" style="fill:#fff;"></path><path d="M265.19,342.37s49.65-38.33,89.8-44.9c10.04-1.64,26.64-4.99,41.25-3.29,43.81,5.11,94.91,20.81,94.91,20.81,0,0-54.39,14.97-101.12,21.54-44.52,6.26-106.55,7.3-124.85,5.84Z" style="fill:#455a64;"></path><path d="M339.01,304.93c-.7,.35-1.38,23.41,10.53,24.42,11.91,1.01,108.65-16.43,106.16-19.3-5.06-5.85-53.69-12.05-62.57-12.69-8.11-.59-42.87,1.92-54.12,7.57Z" style="fill:#fff; opacity:.3;"></path><path d="M406.8,295.59s.18,.18,.51,.54c.34,.37,.83,.92,1.48,1.63,1.3,1.45,3.22,3.59,5.71,6.36,4.99,5.58,12.27,13.73,21.48,24.04l.04,.04v.07c.03,1.08,.49,2.2,1.11,3.17,.6,1.01,1.48,1.82,2.4,2.63,1.84,1.63,3.69,3.4,5.33,5.45,3.3,4.06,5.71,9.4,5.95,15.29,.08,.73,0,1.47,0,2.21l-.02,1.11-.09,1.11c-.14,1.49-.33,2.98-.57,4.49-.48,3.01-1.09,6.07-1.79,9.17-1.41,6.19-3.15,12.57-5.2,19.08-2.09,6.49-4.35,13.2-7.59,19.72-.84,1.61-1.71,3.24-2.98,4.65-.68,.71-1.4,1.19-2.02,1.89-.65,.64-1.21,1.36-1.74,2.11-.53,.75-.99,1.56-1.55,2.33-.55,.78-1.25,1.49-2.08,2-1.67,1.02-3.59,1.42-5.47,1.73-1.9,.2-3.82,.36-5.74,.45-1.92,.1-3.85,.22-5.79,.3-3.88,.16-7.8,.33-11.75,.49-7.91,.28-15.96,.56-24.12,.85-41.62,1.35-80.32,2.37-112.5,3.19h-.21l-.02-.2c-1.04-13.73-1.83-26.3-2.37-37.44-.26-5.57-.45-10.78-.53-15.59-.04-2.41-.03-4.72,.02-6.92,.09-2.21,.25-4.31,.43-6.29,.34-3.97,.72-7.52,1.32-10.56,.57-3.04,1.43-5.57,2.46-7.44,1.02-1.88,2.16-3.1,2.96-3.84,.83-.72,1.3-1.04,1.3-1.04,0,0-.1,.1-.32,.28-.21,.19-.55,.43-.94,.81-.79,.75-1.9,1.98-2.89,3.85-2.1,3.75-3.05,10.04-3.65,17.96-.17,1.99-.33,4.08-.41,6.28-.04,2.2-.04,4.51,0,6.91,.09,4.81,.3,10.02,.58,15.58,.57,11.13,1.39,23.7,2.45,37.42l-.22-.2c32.17-.88,70.88-1.93,112.49-3.28,8.16-.29,16.21-.57,24.11-.85,3.95-.16,7.87-.33,11.75-.49,1.94-.08,3.87-.19,5.78-.3,1.92-.08,3.81-.24,5.69-.44,1.85-.3,3.73-.7,5.28-1.65,1.59-.93,2.41-2.66,3.48-4.2,.54-.77,1.13-1.51,1.79-2.17,.61-.69,1.43-1.26,2.01-1.88,1.19-1.33,2.07-2.95,2.9-4.53,3.21-6.46,5.48-13.16,7.58-19.63,2.06-6.5,3.8-12.86,5.22-19.04,.7-3.09,1.32-6.14,1.8-9.13,.24-1.5,.44-2.99,.58-4.46l.09-1.1,.02-1.1c0-.73,.08-1.46,0-2.18-.22-5.8-2.58-11.05-5.83-15.08-1.61-2.04-3.44-3.79-5.27-5.43-1.87-1.56-3.47-3.65-3.59-6.08l.04,.11c-9.16-10.35-16.4-18.53-21.37-24.14-2.47-2.8-4.36-4.95-5.65-6.42-.63-.73-1.11-1.28-1.45-1.66-.32-.37-.48-.57-.48-.57Z" style="fill:#263238;"></path><path d="M250.01,425.11s166.16-9.53,188.87-8.06c22.71,1.47,54.58,22.89,54.58,22.89H249.31l.7-14.83Z" style="opacity:.3;"></path><path d="M382.84,351.85c-1.48,.28,49.82-2.03,74.36-8.89,24.54-6.86,72.91-19.09,109.9-21.22,0,0-43.23,3.1-60.08,6.53s-104.87,19.93-124.18,23.58Z" style="opacity:.3;"></path><g><path d="M115.93,431.53c-14.5,2.65-54.22,2.53-53.62,3.04,8.86,1.8,19.37,2.58,19.37,2.58,13.28,1.37,33.35,2.21,54.04,2.67l-1.36-2.99c-1.19-2.8-2.15-5.71-2.9-8.71-1.87,.58-6.15,1.7-15.52,3.41Z" style="opacity:.2;"></path><path d="M52.52,431.53c4.31-.04,71.34-22.38,73.74-24.23,2.41-1.85,2.22-3.52,2.22-3.52l-68.6,21.31c-.02,.08-.03,.13-.03,.13l-9.39,2.79c-.67,1.33,.23,2.5,2.05,3.51Z" style="opacity:.2;"></path></g><path d="M125.08,404.54c.04,.14-16.63,5.56-37.25,12.11-20.62,6.55-37.36,11.75-37.41,11.61-.04-.14,16.63-5.56,37.25-12.11,20.61-6.55,37.36-11.75,37.4-11.61Z" style="fill:#263238;"></path><path d="M134.39,375.64s-.23,.12-.68,.29c-.5,.19-1.17,.43-2,.74-.87,.33-1.93,.71-3.19,1.09-1.26,.39-2.68,.87-4.28,1.28-3.18,.91-7.02,1.81-11.31,2.69-4.3,.84-9.04,1.63-14.04,2.34-10,1.38-19.08,2.4-25.63,3.32-3.27,.46-5.92,.84-7.75,1.14-.87,.13-1.57,.24-2.11,.32-.48,.07-.74,.09-.74,.08,0-.02,.25-.08,.72-.18,.53-.1,1.22-.24,2.09-.41,1.82-.36,4.46-.8,7.73-1.3,6.54-1.02,15.62-2.09,25.61-3.47,4.99-.71,9.73-1.48,14.02-2.3,4.28-.84,8.12-1.7,11.31-2.57,1.61-.39,3.03-.85,4.29-1.21,1.26-.35,2.34-.7,3.21-1,.84-.27,1.52-.49,2.03-.65,.47-.14,.71-.21,.72-.19Z" style="fill:#263238;"></path><path d="M439.65,360.16c-.02-.08,.73,.12,1.68-.56,.45-.34,.9-.94,.98-1.74,.03-.39,0-.86,0-1.33,.01-.48-.07-.93-.31-1.37-.25-.42-.63-.81-1.12-1.02-.49-.24-1.05-.22-1.69-.21-1.25,0-2.58,.02-3.98,.02-2.81,0-5.89,.01-9.12,.02-.4,0-.83-.02-1.17,.03-.36,.05-.7,.18-.99,.38-.58,.4-.97,1.07-1.01,1.76-.05,.69,.21,1.38,.69,1.84,.48,.49,1.1,.68,1.8,.71,2.77,.26,5.28,.5,7.42,.7,2.05,.21,3.73,.39,5,.52,.54,.07,.99,.12,1.36,.17,.31,.04,.47,.08,.47,.09,0,.02-.17,.02-.48,.01-.37-.02-.82-.04-1.36-.07-1.27-.09-2.96-.21-5.01-.35-2.14-.17-4.65-.37-7.43-.59-.69,0-1.55-.25-2.11-.83-.58-.56-.91-1.39-.85-2.23,.05-.84,.51-1.66,1.22-2.15,.36-.25,.77-.41,1.21-.47,.45-.06,.83-.02,1.24-.03,3.23,0,6.31,.01,9.12,.02,1.4,0,2.73,.02,3.98,.02,.32,0,.6,0,.94,.02,.32,.03,.63,.12,.92,.25,.57,.26,1,.71,1.27,1.21,.27,.5,.35,1.07,.32,1.55-.01,.48,0,.91-.04,1.37-.12,.89-.65,1.54-1.15,1.88-.51,.35-1,.43-1.32,.44-.32,.01-.48-.05-.48-.05Z" style="fill:#263238;"></path><path d="M285.91,328.02l1.54,14.93-22.27-.58c6.84-5.22,13.74-10.03,20.73-14.35Z" style="fill:#263238;"></path><g><ellipse cx="291.51" cy="342.96" rx="15.19" ry="8.45" style="fill:#000000;"></ellipse><path d="M306.7,342.95c-.11,.03,.11-1.15-.96-2.75-.99-1.62-3.33-3.32-6.57-4.34-3.23-1.03-7.36-1.48-11.81-.79-2.21,.35-4.5,1.03-6.62,2.22-1.05,.59-2.04,1.36-2.83,2.3-.78,.94-1.33,2.12-1.34,3.36,0,1.25,.55,2.42,1.34,3.36,.79,.94,1.78,1.71,2.83,2.3,2.12,1.18,4.41,1.87,6.62,2.22,4.44,.69,8.58,.24,11.81-.79,3.23-1.03,5.58-2.72,6.57-4.34,1.07-1.6,.85-2.78,.96-2.75,.02,0,.01,.26-.02,.77-.02,.25-.12,.56-.21,.92-.16,.33-.28,.77-.56,1.16-.97,1.71-3.34,3.49-6.62,4.58-3.27,1.1-7.47,1.59-12,.91-2.26-.34-4.6-1.03-6.8-2.25-1.09-.61-2.13-1.41-2.98-2.42-.84-1-1.45-2.3-1.46-3.69,0-1.39,.62-2.69,1.46-3.69,.85-1.01,1.88-1.8,2.98-2.41,2.2-1.22,4.54-1.91,6.8-2.25,4.53-.68,8.72-.18,12,.91,3.28,1.09,5.65,2.88,6.62,4.58,.29,.4,.4,.83,.56,1.16,.08,.37,.18,.67,.21,.92,.03,.51,.04,.78,.02,.77Z" style="fill:#263238;"></path></g><g><circle cx="189.87" cy="410.37" r="52.9" transform="translate(-12.64 6.09) rotate(-1.78)" style="fill:#263238;"></circle><path d="M136.99,409.47s0,.09,0,.14c-.42,29.21,22.92,53.23,52.13,53.65,29.21,.42,53.23-22.92,53.65-52.13,0-.05,0-.09,0-.14l-105.77-1.53Z" style="fill:#263238;"></path><path d="M152.74,409.83c-.3,20.51,16.09,37.37,36.6,37.67,20.51,.3,37.37-16.09,37.67-36.6,.3-20.51-16.09-37.37-36.6-37.67-20.51-.3-37.37,16.09-37.67,36.6Z" style="fill:#fafafa;"></path><path d="M190.41,373.23c-20.51-.3-37.37,16.09-37.67,36.6l74.26,1.07c.3-20.51-16.09-37.37-36.6-37.67Z" style="fill:#e0e0e0;"></path><path d="M167.26,410.04c-.18,12.49,9.8,22.77,22.29,22.95,12.49,.18,22.77-9.8,22.95-22.29,.18-12.49-9.8-22.77-22.29-22.95-12.49-.18-22.76,9.8-22.95,22.29Z" style="fill:#263238;"></path></g><g><circle cx="596.61" cy="410.37" r="52.9" transform="translate(-14.67 22.19) rotate(-2.1)" style="fill:#263238;"></circle><path d="M543.73,409.47s0,.09,0,.14c-.42,29.21,22.92,53.23,52.13,53.65,29.21,.42,53.23-22.92,53.65-52.13,0-.05,0-.09,0-.14l-105.77-1.53Z" style="fill:#263238;"></path><path d="M559.48,409.83c-.3,20.51,16.09,37.37,36.6,37.67,20.51,.3,37.37-16.09,37.67-36.6,.3-20.51-16.09-37.37-36.6-37.67-20.51-.3-37.37,16.09-37.67,36.6Z" style="fill:#fafafa;"></path><path d="M597.14,373.23c-20.51-.3-37.37,16.09-37.67,36.6l74.26,1.07c.3-20.51-16.09-37.37-36.6-37.67Z" style="fill:#e0e0e0;"></path><path d="M573.99,410.04c-.18,12.49,9.8,22.77,22.29,22.95,12.49,.18,22.77-9.8,22.95-22.29,.18-12.49-9.8-22.77-22.29-22.95-12.49-.18-22.76,9.8-22.94,22.29Z" style="fill:#263238;"></path></g><path d="M662.16,341.46c.05,.13-8.06,3.55-18.12,7.63-10.07,4.08-18.27,7.28-18.32,7.15-.05-.13,8.06-3.55,18.13-7.63,10.06-4.08,18.27-7.28,18.32-7.15Z" style="fill:#263238;"></path><path d="M217.52,341.87s-.28,.02-.81,0c-.58-.03-1.35-.07-2.32-.11-1-.07-2.24-.1-3.67-.13-.72-.02-1.48-.04-2.29-.06-.81,0-1.67,0-2.57,0-3.6-.02-7.89,.15-12.64,.42-4.75,.31-9.97,.77-15.43,1.4-10.92,1.29-20.74,2.97-27.81,4.35-3.54,.67-6.39,1.28-8.36,1.69-.95,.2-1.71,.35-2.27,.47-.52,.1-.8,.15-.8,.13,0-.02,.26-.1,.78-.23,.56-.14,1.31-.33,2.25-.57,1.96-.48,4.8-1.14,8.34-1.86,7.06-1.47,16.88-3.21,27.82-4.5,5.47-.62,10.7-1.07,15.46-1.36,4.76-.24,9.06-.38,12.67-.31,.9,.01,1.76,.02,2.57,.03,.81,.04,1.58,.07,2.29,.1,1.43,.06,2.67,.12,3.67,.22,.97,.09,1.74,.16,2.31,.21,.53,.05,.8,.09,.8,.11Z" style="fill:#fff;"></path><path d="M295.58,337.98c-.03,.09-.97-.28-2.53-.61-1.56-.33-3.78-.52-6.19-.18-2.41,.35-4.49,1.16-5.89,1.91-1.41,.75-2.2,1.36-2.26,1.29-.02-.03,.16-.2,.5-.5,.34-.3,.88-.69,1.58-1.11,1.39-.85,3.52-1.75,6-2.11,2.48-.35,4.77-.09,6.35,.34,.79,.21,1.41,.43,1.83,.63,.42,.19,.64,.31,.62,.34Z" style="fill:#fff;"></path><path d="M389.24,289.71s-.19,.03-.56,.04c-.42,0-.95,0-1.6,0-1.39-.01-3.39-.02-5.87,0-4.96,.03-11.8,.23-19.34,.84-7.54,.62-14.33,1.53-19.22,2.31-2.45,.39-4.43,.71-5.79,.95-.64,.1-1.16,.19-1.58,.26-.36,.05-.55,.07-.56,.05,0-.02,.18-.07,.54-.16,.41-.09,.93-.21,1.56-.35,1.35-.3,3.33-.69,5.77-1.12,4.89-.87,11.68-1.84,19.24-2.46,7.55-.61,14.42-.76,19.38-.69,2.48,.03,4.49,.09,5.88,.17l1.6,.09c.36,.03,.56,.05,.55,.07Z" style="fill:#fff;"></path><path d="M486.72,318.82s-.09,.05-.29,.13c-.22,.08-.51,.19-.86,.32-.8,.29-1.91,.69-3.34,1.2-1.45,.52-3.23,1.14-5.31,1.82-2.08,.68-4.43,1.49-7.07,2.28-5.25,1.66-11.55,3.47-18.59,5.32-7.05,1.82-14.84,3.66-23.07,5.33-8.24,1.64-16.14,2.96-23.34,4-7.21,1.01-13.72,1.77-19.2,2.27-2.74,.29-5.22,.45-7.4,.63-2.18,.18-4.06,.3-5.59,.37-1.51,.08-2.69,.14-3.54,.18-.38,.01-.68,.03-.92,.03-.21,0-.31,0-.31,0s.11-.02,.31-.05c.24-.02,.54-.05,.92-.09,.84-.07,2.03-.16,3.53-.28,1.53-.11,3.41-.25,5.58-.46,2.18-.2,4.66-.39,7.39-.7,5.47-.55,11.97-1.35,19.17-2.38,7.19-1.07,15.08-2.4,23.31-4.04,8.22-1.67,16.01-3.49,23.05-5.28,7.04-1.83,13.34-3.6,18.6-5.21,2.64-.77,5-1.55,7.09-2.2,2.09-.65,3.87-1.24,5.33-1.73,1.44-.47,2.56-.84,3.37-1.1,.36-.11,.65-.2,.88-.27,.2-.06,.3-.09,.31-.08Z" style="fill:#fff;"></path><path d="M579.05,322.64s-.22,.05-.64,.1c-.47,.04-1.08,.1-1.83,.17-1.65,.15-3.94,.36-6.73,.62-5.68,.55-13.51,1.47-22.11,2.85-8.6,1.39-16.32,2.98-21.89,4.23-2.73,.63-4.97,1.15-6.59,1.52-.74,.17-1.33,.3-1.79,.41-.41,.09-.63,.13-.63,.11,0-.02,.2-.09,.61-.21,.46-.13,1.04-.3,1.77-.51,1.54-.43,3.78-1.01,6.55-1.69,5.55-1.35,13.28-3,21.89-4.39,8.61-1.38,16.46-2.24,22.16-2.7,2.85-.23,5.15-.38,6.75-.46,.75-.03,1.36-.06,1.84-.08,.42-.01,.64,0,.64,0Z" style="fill:#fff;"></path><path d="M455.74,305.42c.06,.01,15.56,7.02,12.75,9.52s-12.75,8.91-12.75,8.91l35.41-8.86-35.41-9.57Z" style="fill:#263238;"></path></g></g><g id="freepik--Lines--inject-190"><g><path d="M721.71,438.5c0,.14-8.84,.26-19.74,.26s-19.74-.12-19.74-.26,8.84-.26,19.74-.26,19.74,.12,19.74,.26Z" style="fill:#263238;"></path><path d="M709.46,444.63c0,.14-8.99,.26-20.08,.26s-20.08-.12-20.08-.26,8.99-.26,20.08-.26,20.08,.12,20.08,.26Z" style="fill:#263238;"></path></g><g><path d="M354.16,395.73c0,.14-10.82,.26-24.16,.26s-24.16-.12-24.16-.26,10.82-.26,24.16-.26,24.16,.12,24.16,.26Z" style="fill:#263238;"></path><path d="M331.23,403.22c0,.14-10.36,.26-23.14,.26s-23.14-.12-23.14-.26,10.36-.26,23.14-.26,23.14,.12,23.14,.26Z" style="fill:#263238;"></path></g></g></svg>
