<svg width="56" height="296" viewBox="0 0 56 296" fill="none" xmlns="http://www.w3.org/2000/svg">
<path d="M38 22.5H32" stroke="#292D32" stroke-width="1.5" stroke-miterlimit="10" stroke-linecap="round" stroke-linejoin="round"/>
<path d="M22 22.5H18" stroke="#292D32" stroke-width="1.5" stroke-miterlimit="10" stroke-linecap="round" stroke-linejoin="round"/>
<path d="M26 26C27.933 26 29.5 24.433 29.5 22.5C29.5 20.567 27.933 19 26 19C24.067 19 22.5 20.567 22.5 22.5C22.5 24.433 24.067 26 26 26Z" stroke="#292D32" stroke-width="1.5" stroke-miterlimit="10" stroke-linecap="round" stroke-linejoin="round"/>
<path d="M38 33.5H34" stroke="#292D32" stroke-width="1.5" stroke-miterlimit="10" stroke-linecap="round" stroke-linejoin="round"/>
<path d="M24 33.5H18" stroke="#292D32" stroke-width="1.5" stroke-miterlimit="10" stroke-linecap="round" stroke-linejoin="round"/>
<path d="M30 37C31.933 37 33.5 35.433 33.5 33.5C33.5 31.567 31.933 30 30 30C28.067 30 26.5 31.567 26.5 33.5C26.5 35.433 28.067 37 30 37Z" stroke="#292D32" stroke-width="1.5" stroke-miterlimit="10" stroke-linecap="round" stroke-linejoin="round"/>
<path d="M37.3 71.5802H31.72C31.33 71.5802 31.02 71.2702 31.02 70.8802C31.02 70.4902 31.33 70.1802 31.72 70.1802H37.3C37.69 70.1802 38 70.4902 38 70.8802C38 71.2702 37.69 71.5802 37.3 71.5802Z" fill="#292D32"/>
<path d="M22.42 71.5802H18.7C18.31 71.5802 18 71.2702 18 70.8802C18 70.4902 18.31 70.1802 18.7 70.1802H22.42C22.81 70.1802 23.12 70.4902 23.12 70.8802C23.12 71.2702 22.8 71.5802 22.42 71.5802Z" fill="#292D32"/>
<path d="M26.1399 74.8302C28.3215 74.8302 30.0899 73.0617 30.0899 70.8802C30.0899 68.6987 28.3215 66.9302 26.1399 66.9302C23.9584 66.9302 22.1899 68.6987 22.1899 70.8802C22.1899 73.0617 23.9584 74.8302 26.1399 74.8302Z" fill="#292D32"/>
<path d="M37.3 81.8102H33.58C33.19 81.8102 32.88 81.5002 32.88 81.1102C32.88 80.7202 33.19 80.4102 33.58 80.4102H37.3C37.69 80.4102 38 80.7202 38 81.1102C38 81.5002 37.69 81.8102 37.3 81.8102Z" fill="#292D32"/>
<path d="M24.28 81.8102H18.7C18.31 81.8102 18 81.5002 18 81.1102C18 80.7202 18.31 80.4102 18.7 80.4102H24.28C24.67 80.4102 24.98 80.7202 24.98 81.1102C24.98 81.5002 24.66 81.8102 24.28 81.8102Z" fill="#292D32"/>
<path d="M29.86 85.0699C32.0416 85.0699 33.81 83.3014 33.81 81.1199C33.81 78.9384 32.0416 77.1699 29.86 77.1699C27.6785 77.1699 25.91 78.9384 25.91 81.1199C25.91 83.3014 27.6785 85.0699 29.86 85.0699Z" fill="#292D32"/>
<path d="M38 119.25H32C31.59 119.25 31.25 118.91 31.25 118.5C31.25 118.09 31.59 117.75 32 117.75H38C38.41 117.75 38.75 118.09 38.75 118.5C38.75 118.91 38.41 119.25 38 119.25Z" fill="#292D32"/>
<path d="M22 119.25H18C17.59 119.25 17.25 118.91 17.25 118.5C17.25 118.09 17.59 117.75 18 117.75H22C22.41 117.75 22.75 118.09 22.75 118.5C22.75 118.91 22.41 119.25 22 119.25Z" fill="#292D32"/>
<path d="M26 122.75C23.66 122.75 21.75 120.84 21.75 118.5C21.75 116.16 23.66 114.25 26 114.25C28.34 114.25 30.25 116.16 30.25 118.5C30.25 120.84 28.34 122.75 26 122.75ZM26 115.75C24.48 115.75 23.25 116.98 23.25 118.5C23.25 120.02 24.48 121.25 26 121.25C27.52 121.25 28.75 120.02 28.75 118.5C28.75 116.98 27.52 115.75 26 115.75Z" fill="#292D32"/>
<path d="M38 130.25H34C33.59 130.25 33.25 129.91 33.25 129.5C33.25 129.09 33.59 128.75 34 128.75H38C38.41 128.75 38.75 129.09 38.75 129.5C38.75 129.91 38.41 130.25 38 130.25Z" fill="#292D32"/>
<path d="M24 130.25H18C17.59 130.25 17.25 129.91 17.25 129.5C17.25 129.09 17.59 128.75 18 128.75H24C24.41 128.75 24.75 129.09 24.75 129.5C24.75 129.91 24.41 130.25 24 130.25Z" fill="#292D32"/>
<path d="M30 133.75C27.66 133.75 25.75 131.84 25.75 129.5C25.75 127.16 27.66 125.25 30 125.25C32.34 125.25 34.25 127.16 34.25 129.5C34.25 131.84 32.34 133.75 30 133.75ZM30 126.75C28.48 126.75 27.25 127.98 27.25 129.5C27.25 131.02 28.48 132.25 30 132.25C31.52 132.25 32.75 131.02 32.75 129.5C32.75 127.98 31.52 126.75 30 126.75Z" fill="#292D32"/>
<path d="M38 166.5H32" stroke="#292D32" stroke-width="1.5" stroke-miterlimit="10" stroke-linecap="round" stroke-linejoin="round"/>
<g opacity="0.4">
<path d="M22 166.5H18" stroke="#292D32" stroke-width="1.5" stroke-miterlimit="10" stroke-linecap="round" stroke-linejoin="round"/>
<path d="M26 170C27.933 170 29.5 168.433 29.5 166.5C29.5 164.567 27.933 163 26 163C24.067 163 22.5 164.567 22.5 166.5C22.5 168.433 24.067 170 26 170Z" stroke="#292D32" stroke-width="1.5" stroke-miterlimit="10" stroke-linecap="round" stroke-linejoin="round"/>
</g>
<path d="M24 177.5H18" stroke="#292D32" stroke-width="1.5" stroke-miterlimit="10" stroke-linecap="round" stroke-linejoin="round"/>
<g opacity="0.4">
<path d="M38 177.5H34" stroke="#292D32" stroke-width="1.5" stroke-miterlimit="10" stroke-linecap="round" stroke-linejoin="round"/>
<path d="M30 181C31.933 181 33.5 179.433 33.5 177.5C33.5 175.567 31.933 174 30 174C28.067 174 26.5 175.567 26.5 177.5C26.5 179.433 28.067 181 30 181Z" stroke="#292D32" stroke-width="1.5" stroke-miterlimit="10" stroke-linecap="round" stroke-linejoin="round"/>
</g>
<path opacity="0.4" d="M37.23 215.62H31.69C31.31 215.62 31 215.31 31 214.92C31 214.54 31.31 214.23 31.69 214.23H37.23C37.61 214.23 37.92 214.54 37.92 214.92C37.92 215.31 37.61 215.62 37.23 215.62Z" fill="#292D32"/>
<path opacity="0.4" d="M22.46 215.62H18.77C18.39 215.62 18.08 215.31 18.08 214.93C18.08 214.55 18.39 214.24 18.77 214.24H22.46C22.84 214.24 23.15 214.55 23.15 214.93C23.15 215.31 22.84 215.62 22.46 215.62Z" fill="#292D32"/>
<path d="M26.15 218.84C28.3149 218.84 30.07 217.085 30.07 214.92C30.07 212.755 28.3149 211 26.15 211C23.985 211 22.23 212.755 22.23 214.92C22.23 217.085 23.985 218.84 26.15 218.84Z" fill="#292D32"/>
<path opacity="0.4" d="M37.23 225.77H33.54C33.16 225.77 32.85 225.46 32.85 225.08C32.85 224.7 33.16 224.39 33.54 224.39H37.23C37.61 224.39 37.92 224.7 37.92 225.08C37.92 225.46 37.61 225.77 37.23 225.77Z" fill="#292D32"/>
<path opacity="0.4" d="M24.31 225.77H18.77C18.39 225.77 18.08 225.46 18.08 225.08C18.08 224.7 18.39 224.39 18.77 224.39H24.31C24.69 224.39 25 224.7 25 225.08C25 225.46 24.69 225.77 24.31 225.77Z" fill="#292D32"/>
<path d="M29.8501 229C32.015 229 33.7701 227.245 33.7701 225.08C33.7701 222.915 32.015 221.16 29.8501 221.16C27.6851 221.16 25.9301 222.915 25.9301 225.08C25.9301 227.245 27.6851 229 29.8501 229Z" fill="#292D32"/>
<path d="M38 262.5H32" stroke="#292D32" stroke-width="1.5" stroke-miterlimit="10" stroke-linecap="round" stroke-linejoin="round"/>
<path d="M22 262.5H18" stroke="#292D32" stroke-width="1.5" stroke-miterlimit="10" stroke-linecap="round" stroke-linejoin="round"/>
<path d="M29.5 262.5C29.5 264.43 27.93 266 26 266C24.07 266 22.5 264.43 22.5 262.5C22.5 260.57 24.07 259 26 259C26.34 259 26.67 259.05 26.98 259.14" stroke="#292D32" stroke-width="1.5" stroke-miterlimit="10" stroke-linecap="round" stroke-linejoin="round"/>
<path d="M38 273.5H34" stroke="#292D32" stroke-width="1.5" stroke-miterlimit="10" stroke-linecap="round" stroke-linejoin="round"/>
<path d="M24 273.5H18" stroke="#292D32" stroke-width="1.5" stroke-miterlimit="10" stroke-linecap="round" stroke-linejoin="round"/>
<path d="M30 277C31.933 277 33.5 275.433 33.5 273.5C33.5 271.567 31.933 270 30 270C28.067 270 26.5 271.567 26.5 273.5C26.5 275.433 28.067 277 30 277Z" stroke="#292D32" stroke-width="1.5" stroke-miterlimit="10" stroke-linecap="round" stroke-linejoin="round"/>
</svg>
