<svg xmlns="http://www.w3.org/2000/svg" width="22" height="20" viewBox="0 0 22 20" fill="none">
<path d="M9.04297 1.14941C10.0596 0.333049 11.653 0.286924 12.7549 1.00684L12.9688 1.16113L19.5137 6.39648V6.39746C19.8916 6.70556 20.2196 7.18882 20.4307 7.74121C20.6407 8.29107 20.7189 8.8673 20.6465 9.34766L19.3877 16.8848C19.1386 18.3182 17.7435 19.5 16.2998 19.5H5.7002C4.327 19.5 3.04309 18.4867 2.68262 17.1641L2.62305 16.8955L1.36328 9.35742V9.35645L1.33984 9.1709C1.30172 8.72788 1.38061 8.2244 1.56445 7.74219C1.74829 7.2601 2.02465 6.83066 2.34961 6.52441L2.49219 6.40039L9.04297 1.15039V1.14941ZM11 11.75C10.3139 11.75 9.75001 12.3139 9.75 13V16C9.75 16.6861 10.3139 17.25 11 17.25C11.6861 17.25 12.25 16.6861 12.25 16V13C12.25 12.3139 11.6861 11.75 11 11.75Z" stroke="#90A3BF"/>
</svg>