<svg xmlns="http://www.w3.org/2000/svg" width="16" height="16" viewBox="0 0 16 16" fill="#90A3BF">
<path d="M7.99984 12.3333C10.3931 12.3333 12.3332 10.3932 12.3332 7.99996C12.3332 5.60673 10.3931 3.66663 7.99984 3.66663C5.6066 3.66663 3.6665 5.60673 3.6665 7.99996C3.6665 10.3932 5.6066 12.3333 7.99984 12.3333Z" stroke="#90A3BF" stroke-linecap="round" stroke-linejoin="round"/>
<path d="M12.7602 12.76L12.6735 12.6733M12.6735 3.32665L12.7602 3.23998L12.6735 3.32665ZM3.24016 12.76L3.32683 12.6733L3.24016 12.76ZM8.00016 1.38665V1.33331V1.38665ZM8.00016 14.6666V14.6133V14.6666ZM1.38683 7.99998H1.3335H1.38683ZM14.6668 7.99998H14.6135H14.6668ZM3.32683 3.32665L3.24016 3.23998L3.32683 3.32665Z" stroke="#90A3BF" stroke-linecap="round" stroke-linejoin="round"/>
</svg>